<svg xmlns="http://www.w3.org/2000/svg" xmlns:xlink="http://www.w3.org/1999/xlink" width="50" zoomAndPan="magnify" viewBox="0 0 37.5 37.499999" height="50" preserveAspectRatio="xMidYMid meet" version="1.0"><defs><clipPath id="e3ce2df8ad"><path d="M 0.492188 1.316406 L 37 1.316406 L 37 35.816406 L 0.492188 35.816406 Z M 0.492188 1.316406 " clip-rule="nonzero"/></clipPath></defs><g clip-path="url(#e3ce2df8ad)"><path fill="#000000" d="M 33.460938 14.96875 L 34.945312 15.917969 L 26.324219 28.882812 L 23.480469 31.476562 L 24.851562 27.929688 Z M 33.460938 13.324219 C 32.855469 13.320312 32.386719 13.566406 32.054688 14.0625 L 23.449219 27.027344 C 23.386719 27.125 23.328125 27.230469 23.28125 27.335938 L 21.910156 30.886719 C 21.769531 31.246094 21.761719 31.605469 21.878906 31.972656 C 21.996094 32.339844 22.21875 32.628906 22.546875 32.839844 C 22.828125 33.027344 23.140625 33.121094 23.480469 33.121094 C 23.917969 33.125 24.296875 32.980469 24.617188 32.695312 L 27.460938 30.082031 C 27.5625 29.988281 27.652344 29.882812 27.726562 29.769531 L 36.332031 16.808594 C 36.457031 16.628906 36.542969 16.433594 36.585938 16.222656 C 36.632812 16.011719 36.636719 15.800781 36.597656 15.589844 C 36.558594 15.378906 36.480469 15.179688 36.363281 15 C 36.242188 14.816406 36.09375 14.664062 35.917969 14.539062 L 34.445312 13.585938 C 34.164062 13.410156 33.859375 13.320312 33.527344 13.324219 Z M 22.546875 8.707031 C 22.546875 8.480469 22.464844 8.289062 22.300781 8.125 C 22.136719 7.964844 21.941406 7.886719 21.710938 7.886719 L 10.011719 7.886719 C 9.78125 7.886719 9.582031 7.964844 9.417969 8.125 C 9.257812 8.289062 9.175781 8.480469 9.175781 8.707031 C 9.175781 8.933594 9.257812 9.128906 9.417969 9.289062 C 9.582031 9.449219 9.78125 9.527344 10.011719 9.527344 L 21.710938 9.527344 C 21.941406 9.527344 22.136719 9.449219 22.300781 9.289062 C 22.464844 9.128906 22.546875 8.933594 22.546875 8.707031 Z M 22.546875 15.277344 C 22.546875 15.050781 22.464844 14.859375 22.300781 14.699219 C 22.136719 14.539062 21.941406 14.457031 21.710938 14.457031 L 10.011719 14.457031 C 9.78125 14.457031 9.582031 14.539062 9.417969 14.699219 C 9.257812 14.859375 9.175781 15.050781 9.175781 15.277344 C 9.175781 15.507812 9.257812 15.699219 9.417969 15.859375 C 9.582031 16.019531 9.78125 16.101562 10.011719 16.101562 L 21.710938 16.101562 C 21.941406 16.101562 22.136719 16.019531 22.300781 15.859375 C 22.464844 15.699219 22.546875 15.507812 22.546875 15.277344 Z M 22.546875 21.851562 C 22.546875 21.625 22.464844 21.429688 22.300781 21.269531 C 22.136719 21.109375 21.941406 21.027344 21.710938 21.027344 L 10.011719 21.027344 C 9.78125 21.027344 9.582031 21.109375 9.417969 21.269531 C 9.257812 21.429688 9.175781 21.625 9.175781 21.851562 C 9.175781 22.078125 9.257812 22.269531 9.417969 22.429688 C 9.582031 22.59375 9.78125 22.671875 10.011719 22.671875 L 21.710938 22.671875 C 21.941406 22.671875 22.136719 22.59375 22.300781 22.429688 C 22.464844 22.269531 22.546875 22.078125 22.546875 21.851562 Z M 17.53125 28.421875 C 17.53125 28.195312 17.449219 28 17.285156 27.839844 C 17.125 27.679688 16.925781 27.601562 16.695312 27.601562 L 10.011719 27.601562 C 9.78125 27.601562 9.582031 27.679688 9.417969 27.839844 C 9.257812 28 9.175781 28.195312 9.175781 28.421875 C 9.175781 28.648438 9.257812 28.84375 9.417969 29.003906 C 9.582031 29.164062 9.78125 29.242188 10.011719 29.242188 L 16.695312 29.242188 C 16.925781 29.242188 17.125 29.164062 17.285156 29.003906 C 17.449219 28.84375 17.53125 28.648438 17.53125 28.421875 Z M 30.902344 12.519531 L 30.902344 5.421875 C 30.902344 5.152344 30.875 4.886719 30.820312 4.621094 C 30.769531 4.355469 30.6875 4.097656 30.582031 3.851562 C 30.480469 3.601562 30.351562 3.363281 30.199219 3.140625 C 30.046875 2.914062 29.871094 2.707031 29.679688 2.519531 C 29.484375 2.328125 29.273438 2.15625 29.046875 2.007812 C 28.816406 1.855469 28.574219 1.730469 28.324219 1.628906 C 28.070312 1.523438 27.808594 1.445312 27.539062 1.394531 C 27.269531 1.339844 26.996094 1.316406 26.722656 1.316406 L 4.996094 1.316406 C 4.722656 1.316406 4.449219 1.339844 4.179688 1.394531 C 3.910156 1.445312 3.652344 1.523438 3.398438 1.628906 C 3.144531 1.730469 2.902344 1.855469 2.675781 2.007812 C 2.445312 2.15625 2.234375 2.328125 2.042969 2.519531 C 1.847656 2.707031 1.675781 2.914062 1.523438 3.140625 C 1.371094 3.363281 1.242188 3.601562 1.136719 3.851562 C 1.03125 4.097656 0.953125 4.355469 0.898438 4.621094 C 0.84375 4.886719 0.816406 5.152344 0.816406 5.421875 L 0.816406 31.707031 C 0.816406 31.976562 0.84375 32.246094 0.898438 32.507812 C 0.953125 32.773438 1.03125 33.03125 1.136719 33.28125 C 1.242188 33.527344 1.371094 33.765625 1.523438 33.988281 C 1.675781 34.214844 1.847656 34.421875 2.042969 34.613281 C 2.234375 34.800781 2.445312 34.972656 2.675781 35.121094 C 2.902344 35.273438 3.144531 35.398438 3.398438 35.503906 C 3.652344 35.605469 3.910156 35.683594 4.179688 35.734375 C 4.449219 35.789062 4.722656 35.816406 4.996094 35.816406 L 27.074219 35.816406 C 27.488281 35.78125 27.890625 35.6875 28.277344 35.535156 C 28.597656 35.414062 28.894531 35.25 29.164062 35.042969 C 29.691406 34.65625 30.101562 34.175781 30.398438 33.59375 C 30.691406 33.015625 30.835938 32.402344 30.835938 31.757812 L 30.835938 28.535156 L 29.164062 30.984375 L 29.164062 31.707031 C 29.164062 32.183594 29.035156 32.621094 28.777344 33.023438 C 28.515625 33.425781 28.167969 33.726562 27.726562 33.925781 C 27.542969 34.023438 27.347656 34.089844 27.140625 34.121094 C 26.980469 34.140625 26.816406 34.140625 26.65625 34.121094 L 4.996094 34.121094 C 4.667969 34.121094 4.351562 34.0625 4.046875 33.941406 C 3.746094 33.816406 3.476562 33.644531 3.242188 33.417969 C 3.007812 33.191406 2.824219 32.933594 2.695312 32.636719 C 2.5625 32.339844 2.496094 32.03125 2.488281 31.707031 L 2.488281 5.421875 C 2.488281 5.09375 2.550781 4.78125 2.679688 4.480469 C 2.808594 4.175781 2.988281 3.910156 3.222656 3.679688 C 3.457031 3.449219 3.730469 3.269531 4.035156 3.144531 C 4.34375 3.019531 4.664062 2.957031 4.996094 2.957031 L 26.722656 2.957031 C 27.054688 2.957031 27.375 3.019531 27.683594 3.144531 C 27.988281 3.269531 28.261719 3.449219 28.496094 3.679688 C 28.730469 3.910156 28.914062 4.175781 29.039062 4.480469 C 29.167969 4.78125 29.230469 5.09375 29.230469 5.421875 L 29.230469 15.03125 Z M 30.902344 12.519531 " fill-opacity="1" fill-rule="nonzero"/></g></svg>