<svg xmlns="http://www.w3.org/2000/svg" xmlns:xlink="http://www.w3.org/1999/xlink" width="50" zoomAndPan="magnify" viewBox="0 0 37.5 37.499999" height="50" preserveAspectRatio="xMidYMid meet" version="1.0"><defs><clipPath id="ac010fe978"><path d="M 3.964844 0.8125 L 33.214844 0.8125 L 33.214844 36.8125 L 3.964844 36.8125 Z M 3.964844 0.8125 " clip-rule="nonzero"/></clipPath></defs><path fill="#000000" d="M 10.953125 18.300781 C 10.953125 18.417969 10.859375 18.511719 10.746094 18.511719 L 8.917969 18.511719 C 8.800781 18.511719 8.707031 18.417969 8.707031 18.300781 L 8.707031 16.449219 C 8.707031 16.328125 8.800781 16.234375 8.917969 16.234375 L 10.746094 16.234375 C 10.859375 16.234375 10.953125 16.328125 10.953125 16.449219 Z M 10.746094 15.457031 L 8.917969 15.457031 C 8.378906 15.457031 7.941406 15.902344 7.941406 16.449219 L 7.941406 18.300781 C 7.941406 18.847656 8.378906 19.292969 8.917969 19.292969 L 10.746094 19.292969 C 11.28125 19.292969 11.722656 18.847656 11.722656 18.300781 L 11.722656 16.449219 C 11.722656 15.902344 11.28125 15.457031 10.746094 15.457031 " fill-opacity="1" fill-rule="nonzero"/><path fill="#000000" d="M 13.539062 16.984375 C 13.328125 16.984375 13.15625 17.160156 13.15625 17.375 C 13.15625 17.589844 13.328125 17.761719 13.539062 17.761719 L 26.230469 17.761719 C 26.441406 17.761719 26.613281 17.589844 26.613281 17.375 C 26.613281 17.160156 26.441406 16.984375 26.230469 16.984375 L 13.539062 16.984375 " fill-opacity="1" fill-rule="nonzero"/><path fill="#000000" d="M 10.953125 24.179688 C 10.953125 24.296875 10.859375 24.390625 10.746094 24.390625 L 8.917969 24.390625 C 8.800781 24.390625 8.707031 24.296875 8.707031 24.179688 L 8.707031 22.328125 C 8.707031 22.207031 8.800781 22.113281 8.917969 22.113281 L 10.746094 22.113281 C 10.859375 22.113281 10.953125 22.207031 10.953125 22.328125 Z M 10.746094 21.335938 L 8.917969 21.335938 C 8.378906 21.335938 7.941406 21.777344 7.941406 22.328125 L 7.941406 24.179688 C 7.941406 24.726562 8.378906 25.171875 8.917969 25.171875 L 10.746094 25.171875 C 11.28125 25.171875 11.722656 24.726562 11.722656 24.179688 L 11.722656 22.328125 C 11.722656 21.777344 11.28125 21.335938 10.746094 21.335938 " fill-opacity="1" fill-rule="nonzero"/><path fill="#000000" d="M 26.230469 22.863281 L 13.539062 22.863281 C 13.328125 22.863281 13.15625 23.039062 13.15625 23.253906 C 13.15625 23.46875 13.328125 23.640625 13.539062 23.640625 L 26.230469 23.640625 C 26.441406 23.640625 26.613281 23.46875 26.613281 23.253906 C 26.613281 23.039062 26.441406 22.863281 26.230469 22.863281 " fill-opacity="1" fill-rule="nonzero"/><path fill="#000000" d="M 10.953125 30.058594 C 10.953125 30.175781 10.859375 30.269531 10.746094 30.269531 L 8.917969 30.269531 C 8.800781 30.269531 8.707031 30.175781 8.707031 30.058594 L 8.707031 28.203125 C 8.707031 28.085938 8.800781 27.992188 8.917969 27.992188 L 10.746094 27.992188 C 10.859375 27.992188 10.953125 28.085938 10.953125 28.203125 Z M 10.746094 27.214844 L 8.917969 27.214844 C 8.378906 27.214844 7.941406 27.65625 7.941406 28.203125 L 7.941406 30.058594 C 7.941406 30.605469 8.378906 31.046875 8.917969 31.046875 L 10.746094 31.046875 C 11.28125 31.046875 11.722656 30.605469 11.722656 30.058594 L 11.722656 28.203125 C 11.722656 27.65625 11.28125 27.214844 10.746094 27.214844 " fill-opacity="1" fill-rule="nonzero"/><path fill="#000000" d="M 26.230469 28.742188 L 13.539062 28.742188 C 13.328125 28.742188 13.15625 28.914062 13.15625 29.128906 C 13.15625 29.34375 13.328125 29.519531 13.539062 29.519531 L 26.230469 29.519531 C 26.441406 29.519531 26.613281 29.34375 26.613281 29.128906 C 26.613281 28.914062 26.441406 28.742188 26.230469 28.742188 " fill-opacity="1" fill-rule="nonzero"/><g clip-path="url(#ac010fe978)"><path fill="#000000" d="M 27.054688 12.132812 C 26.835938 12.460938 26.488281 12.683594 26.101562 12.738281 C 26.035156 12.746094 25.972656 12.75 25.910156 12.75 C 25.585938 12.75 25.269531 12.632812 25.019531 12.417969 L 21.433594 9.332031 C 20.855469 8.832031 20.785156 7.949219 21.277344 7.359375 C 21.769531 6.773438 22.636719 6.699219 23.21875 7.199219 L 25.625 9.273438 L 28.851562 4.398438 C 29.273438 3.757812 30.128906 3.589844 30.761719 4.019531 C 31.390625 4.449219 31.5625 5.316406 31.136719 5.957031 Z M 29.050781 32.714844 C 29.050781 34.109375 27.933594 35.246094 26.554688 35.246094 L 8 35.246094 C 6.621094 35.246094 5.5 34.109375 5.5 32.714844 L 5.5 14.027344 L 5.820312 13.703125 L 9.445312 13.703125 C 11.25 13.703125 12.710938 12.222656 12.710938 10.390625 L 12.710938 6.710938 L 13.027344 6.390625 L 19.40625 6.390625 C 19.300781 6.878906 19.242188 7.386719 19.242188 7.90625 C 19.242188 11.824219 22.371094 14.996094 26.230469 14.996094 C 27.234375 14.996094 28.1875 14.777344 29.050781 14.390625 Z M 33.21875 7.90625 C 33.21875 3.992188 30.089844 0.820312 26.230469 0.820312 C 23.457031 0.820312 21.070312 2.460938 19.941406 4.832031 L 12.710938 4.832031 C 12.507812 4.832031 12.3125 4.914062 12.167969 5.0625 L 4.191406 13.152344 C 4.046875 13.300781 3.96875 13.496094 3.96875 13.703125 L 3.96875 32.714844 C 3.96875 34.96875 5.777344 36.804688 8 36.804688 L 26.554688 36.804688 C 28.777344 36.804688 30.585938 34.96875 30.585938 32.714844 L 30.585938 13.445312 C 32.1875 12.144531 33.21875 10.148438 33.21875 7.90625 " fill-opacity="1" fill-rule="nonzero"/></g></svg>